solid ascii
  facet normal 0.000000e+000 -1.000000e+000 0.000000e+000
    outer loop
      vertex   -3.389973e+001 7.060000e+001 1.015000e+001
      vertex   -3.389973e+001 7.060000e+001 1.500000e-001
      vertex   -2.839973e+001 7.060000e+001 1.015000e+001
    endloop
  endfacet
  facet normal 0.000000e+000 -1.000000e+000 -0.000000e+000
    outer loop
      vertex   -2.839973e+001 7.060000e+001 1.015000e+001
      vertex   -3.389973e+001 7.060000e+001 1.500000e-001
      vertex   -2.839973e+001 7.060000e+001 1.500000e-001
    endloop
  endfacet
  facet normal -1.000000e+000 -0.000000e+000 -0.000000e+000
    outer loop
      vertex   -2.839973e+001 7.060000e+001 1.015000e+001
      vertex   -2.839973e+001 7.060000e+001 1.500000e-001
      vertex   -2.839973e+001 6.940000e+001 1.015000e+001
    endloop
  endfacet
  facet normal -1.000000e+000 -0.000000e+000 -0.000000e+000
    outer loop
      vertex   -2.839973e+001 6.940000e+001 1.015000e+001
      vertex   -2.839973e+001 7.060000e+001 1.500000e-001
      vertex   -2.839973e+001 6.940000e+001 1.500000e-001
    endloop
  endfacet
  facet normal 0.000000e+000 1.000000e+000 0.000000e+000
    outer loop
      vertex   -2.839973e+001 6.940000e+001 1.015000e+001
      vertex   -2.839973e+001 6.940000e+001 1.500000e-001
      vertex   -3.389973e+001 6.940000e+001 1.015000e+001
    endloop
  endfacet
  facet normal 0.000000e+000 1.000000e+000 0.000000e+000
    outer loop
      vertex   -3.389973e+001 6.940000e+001 1.015000e+001
      vertex   -2.839973e+001 6.940000e+001 1.500000e-001
      vertex   -3.389973e+001 6.940000e+001 1.500000e-001
    endloop
  endfacet
  facet normal 1.000000e+000 -0.000000e+000 0.000000e+000
    outer loop
      vertex   -3.389973e+001 6.940000e+001 1.015000e+001
      vertex   -3.389973e+001 6.940000e+001 1.500000e-001
      vertex   -3.389973e+001 7.060000e+001 1.015000e+001
    endloop
  endfacet
  facet normal 1.000000e+000 -0.000000e+000 0.000000e+000
    outer loop
      vertex   -3.389973e+001 7.060000e+001 1.015000e+001
      vertex   -3.389973e+001 6.940000e+001 1.500000e-001
      vertex   -3.389973e+001 7.060000e+001 1.500000e-001
    endloop
  endfacet
  facet normal -9.986295e-001 5.233595e-002 3.223945e-004
    outer loop
      vertex   -4.998904e+001 7.045906e+001 1.015000e+001
      vertex   -4.999132e+001 7.043610e+001 6.816667e+000
      vertex   -5.000000e+001 7.025000e+001 1.015000e+001
    endloop
  endfacet
  facet normal -9.892982e-001 1.459074e-001 -3.285307e-004
    outer loop
      vertex   -4.998904e+001 7.045906e+001 1.015000e+001
      vertex   -4.996026e+001 7.064671e+001 6.816667e+000
      vertex   -4.999132e+001 7.043610e+001 6.816667e+000
    endloop
  endfacet
  facet normal -9.876883e-001 1.564345e-001 2.779880e-004
    outer loop
      vertex   -4.998904e+001 7.045906e+001 1.015000e+001
      vertex   -4.995630e+001 7.066582e+001 1.015000e+001
      vertex   -4.996026e+001 7.064671e+001 6.816667e+000
    endloop
  endfacet
  facet normal -9.681846e-001 2.502368e-001 -2.831800e-004
    outer loop
      vertex   -4.996026e+001 7.064671e+001 6.816667e+000
      vertex   -4.995630e+001 7.066582e+001 1.015000e+001
      vertex   -4.990699e+001 7.085282e+001 6.816667e+000
    endloop
  endfacet
  facet normal -9.361012e-001 3.517309e-001 0.000000e+000
    outer loop
      vertex   -4.990699e+001 7.085282e+001 3.483333e+000
      vertex   -4.990699e+001 7.085282e+001 6.816667e+000
      vertex   -4.983211e+001 7.105211e+001 3.483333e+000
    endloop
  endfacet
  facet normal -9.335804e-001 3.583679e-001 -1.835098e-004
    outer loop
      vertex   -4.990211e+001 7.086803e+001 1.500000e-001
      vertex   -4.983211e+001 7.105211e+001 3.483333e+000
      vertex   -4.982709e+001 7.106347e+001 1.500000e-001
    endloop
  endfacet
  facet normal -9.361011e-001 3.517309e-001 2.359409e-004
    outer loop
      vertex   -4.990211e+001 7.086803e+001 1.500000e-001
      vertex   -4.990699e+001 7.085282e+001 3.483333e+000
      vertex   -4.983211e+001 7.105211e+001 3.483333e+000
    endloop
  endfacet
  facet normal -9.659258e-001 2.588190e-001 -2.316930e-004
    outer loop
      vertex   -4.990211e+001 7.086803e+001 1.500000e-001
      vertex   -4.995630e+001 7.066582e+001 1.500000e-001
      vertex   -4.990699e+001 7.085282e+001 3.483333e+000
    endloop
  endfacet
  facet normal -9.681846e-001 2.502368e-001 2.831800e-004
    outer loop
      vertex   -4.990699e+001 7.085282e+001 3.483333e+000
      vertex   -4.995630e+001 7.066582e+001 1.500000e-001
      vertex   -4.996026e+001 7.064671e+001 3.483333e+000
    endloop
  endfacet
  facet normal -9.892982e-001 1.459074e-001 0.000000e+000
    outer loop
      vertex   -4.996026e+001 7.064671e+001 6.816667e+000
      vertex   -4.996026e+001 7.064671e+001 3.483333e+000
      vertex   -4.999132e+001 7.043610e+001 6.816667e+000
    endloop
  endfacet
  facet normal -9.681847e-001 2.502368e-001 0.000000e+000
    outer loop
      vertex   -4.996026e+001 7.064671e+001 6.816667e+000
      vertex   -4.990699e+001 7.085282e+001 3.483333e+000
      vertex   -4.996026e+001 7.064671e+001 3.483333e+000
    endloop
  endfacet
  facet normal -9.681847e-001 2.502368e-001 0.000000e+000
    outer loop
      vertex   -4.996026e+001 7.064671e+001 6.816667e+000
      vertex   -4.990699e+001 7.085282e+001 6.816667e+000
      vertex   -4.990699e+001 7.085282e+001 3.483333e+000
    endloop
  endfacet
  facet normal -9.659258e-001 2.588190e-001 2.316930e-004
    outer loop
      vertex   -4.995630e+001 7.066582e+001 1.015000e+001
      vertex   -4.990211e+001 7.086803e+001 1.015000e+001
      vertex   -4.990699e+001 7.085282e+001 6.816667e+000
    endloop
  endfacet
  facet normal -9.361011e-001 3.517309e-001 -2.359409e-004
    outer loop
      vertex   -4.990699e+001 7.085282e+001 6.816667e+000
      vertex   -4.990211e+001 7.086803e+001 1.015000e+001
      vertex   -4.983211e+001 7.105211e+001 6.816667e+000
    endloop
  endfacet
  facet normal -8.934113e-001 4.492397e-001 0.000000e+000
    outer loop
      vertex   -4.983211e+001 7.105211e+001 3.483333e+000
      vertex   -4.983211e+001 7.105211e+001 6.816667e+000
      vertex   -4.973647e+001 7.124230e+001 3.483333e+000
    endloop
  endfacet
  facet normal -8.910065e-001 4.539905e-001 -1.334383e-004
    outer loop
      vertex   -4.982709e+001 7.106347e+001 1.500000e-001
      vertex   -4.973647e+001 7.124230e+001 3.483333e+000
      vertex   -4.973205e+001 7.125000e+001 1.500000e-001
    endloop
  endfacet
  facet normal -8.934112e-001 4.492397e-001 1.868135e-004
    outer loop
      vertex   -4.982709e+001 7.106347e+001 1.500000e-001
      vertex   -4.983211e+001 7.105211e+001 3.483333e+000
      vertex   -4.973647e+001 7.124230e+001 3.483333e+000
    endloop
  endfacet
  facet normal -9.335804e-001 3.583679e-001 1.835098e-004
    outer loop
      vertex   -4.990211e+001 7.086803e+001 1.015000e+001
      vertex   -4.982709e+001 7.106347e+001 1.015000e+001
      vertex   -4.983211e+001 7.105211e+001 6.816667e+000
    endloop
  endfacet
  facet normal -8.934112e-001 4.492397e-001 -1.868135e-004
    outer loop
      vertex   -4.983211e+001 7.105211e+001 6.816667e+000
      vertex   -4.982709e+001 7.106347e+001 1.015000e+001
      vertex   -4.973647e+001 7.124230e+001 6.816667e+000
    endloop
  endfacet
  facet normal -8.405987e-001 5.416585e-001 0.000000e+000
    outer loop
      vertex   -4.973647e+001 7.124230e+001 3.483333e+000
      vertex   -4.973647e+001 7.124230e+001 6.816667e+000
      vertex   -4.962116e+001 7.142126e+001 3.483333e+000
    endloop
  endfacet
  facet normal -8.386706e-001 5.446390e-001 -8.147886e-005
    outer loop
      vertex   -4.973205e+001 7.125000e+001 1.500000e-001
      vertex   -4.962116e+001 7.142126e+001 3.483333e+000
      vertex   -4.961803e+001 7.142557e+001 1.500000e-001
    endloop
  endfacet
  facet normal -8.405986e-001 5.416585e-001 1.357980e-004
    outer loop
      vertex   -4.973205e+001 7.125000e+001 1.500000e-001
      vertex   -4.973647e+001 7.124230e+001 3.483333e+000
      vertex   -4.962116e+001 7.142126e+001 3.483333e+000
    endloop
  endfacet
  facet normal -8.910065e-001 4.539905e-001 1.334383e-004
    outer loop
      vertex   -4.982709e+001 7.106347e+001 1.015000e+001
      vertex   -4.973205e+001 7.125000e+001 1.015000e+001
      vertex   -4.973647e+001 7.124230e+001 6.816667e+000
    endloop
  endfacet
  facet normal -8.405986e-001 5.416585e-001 -1.357980e-004
    outer loop
      vertex   -4.973647e+001 7.124230e+001 6.816667e+000
      vertex   -4.973205e+001 7.125000e+001 1.015000e+001
      vertex   -4.962116e+001 7.142126e+001 6.816667e+000
    endloop
  endfacet
  facet normal -7.779830e-001 6.282853e-001 0.000000e+000
    outer loop
      vertex   -4.962116e+001 7.142126e+001 3.483333e+000
      vertex   -4.962116e+001 7.142126e+001 6.816667e+000
      vertex   -4.948629e+001 7.158826e+001 3.483333e+000
    endloop
  endfacet
  facet normal -7.771460e-001 6.293204e-001 0.000000e+000
    outer loop
      vertex   -4.961803e+001 7.142557e+001 1.500000e-001
      vertex   -4.948629e+001 7.158826e+001 3.483333e+000
      vertex   -4.948629e+001 7.158826e+001 1.500000e-001
    endloop
  endfacet
  facet normal -7.779830e-001 6.282853e-001 8.360248e-005
    outer loop
      vertex   -4.961803e+001 7.142557e+001 1.500000e-001
      vertex   -4.962116e+001 7.142126e+001 3.483333e+000
      vertex   -4.948629e+001 7.158826e+001 3.483333e+000
    endloop
  endfacet
  facet normal -8.386706e-001 5.446390e-001 8.147886e-005
    outer loop
      vertex   -4.973205e+001 7.125000e+001 1.015000e+001
      vertex   -4.961803e+001 7.142557e+001 1.015000e+001
      vertex   -4.962116e+001 7.142126e+001 6.816667e+000
    endloop
  endfacet
  facet normal -7.779830e-001 6.282853e-001 -8.360248e-005
    outer loop
      vertex   -4.962116e+001 7.142126e+001 6.816667e+000
      vertex   -4.961803e+001 7.142557e+001 1.015000e+001
      vertex   -4.948629e+001 7.158826e+001 6.816667e+000
    endloop
  endfacet
  facet normal -7.071068e-001 7.071068e-001 0.000000e+000
    outer loop
      vertex   -4.948629e+001 7.158826e+001 3.483333e+000
      vertex   -4.948629e+001 7.158826e+001 6.816667e+000
      vertex   -4.933826e+001 7.173629e+001 3.483333e+000
    endloop
  endfacet
  facet normal -6.293204e-001 7.771460e-001 0.000000e+000
    outer loop
      vertex   -4.933826e+001 7.173629e+001 1.500000e-001
      vertex   -4.933826e+001 7.173629e+001 3.483333e+000
      vertex   -4.917557e+001 7.186803e+001 1.500000e-001
    endloop
  endfacet
  facet normal -7.071068e-001 7.071068e-001 0.000000e+000
    outer loop
      vertex   -4.933826e+001 7.173629e+001 1.500000e-001
      vertex   -4.948629e+001 7.158826e+001 3.483333e+000
      vertex   -4.933826e+001 7.173629e+001 3.483333e+000
    endloop
  endfacet
  facet normal -7.071068e-001 7.071068e-001 0.000000e+000
    outer loop
      vertex   -4.933826e+001 7.173629e+001 1.500000e-001
      vertex   -4.948629e+001 7.158826e+001 1.500000e-001
      vertex   -4.948629e+001 7.158826e+001 3.483333e+000
    endloop
  endfacet
  facet normal -7.771460e-001 6.293204e-001 0.000000e+000
    outer loop
      vertex   -4.961803e+001 7.142557e+001 1.015000e+001
      vertex   -4.948629e+001 7.158826e+001 1.015000e+001
      vertex   -4.948629e+001 7.158826e+001 6.816667e+000
    endloop
  endfacet
  facet normal -7.071068e-001 7.071068e-001 0.000000e+000
    outer loop
      vertex   -4.948629e+001 7.158826e+001 6.816667e+000
      vertex   -4.948629e+001 7.158826e+001 1.015000e+001
      vertex   -4.933826e+001 7.173629e+001 6.816667e+000
    endloop
  endfacet
  facet normal -6.282853e-001 7.779830e-001 0.000000e+000
    outer loop
      vertex   -4.933826e+001 7.173629e+001 3.483333e+000
      vertex   -4.933826e+001 7.173629e+001 6.816667e+000
      vertex   -4.917126e+001 7.187116e+001 3.483333e+000
    endloop
  endfacet
  facet normal -5.446390e-001 8.386706e-001 -8.147886e-005
    outer loop
      vertex   -4.917557e+001 7.186803e+001 1.500000e-001
      vertex   -4.917126e+001 7.187116e+001 3.483333e+000
      vertex   -4.900000e+001 7.198205e+001 1.500000e-001
    endloop
  endfacet
  facet normal -6.282853e-001 7.779830e-001 8.360248e-005
    outer loop
      vertex   -4.917557e+001 7.186803e+001 1.500000e-001
      vertex   -4.933826e+001 7.173629e+001 3.483333e+000
      vertex   -4.917126e+001 7.187116e+001 3.483333e+000
    endloop
  endfacet
  facet normal -7.071068e-001 7.071068e-001 0.000000e+000
    outer loop
      vertex   -4.948629e+001 7.158826e+001 1.015000e+001
      vertex   -4.933826e+001 7.173629e+001 1.015000e+001
      vertex   -4.933826e+001 7.173629e+001 6.816667e+000
    endloop
  endfacet
  facet normal -6.293204e-001 7.771460e-001 0.000000e+000
    outer loop
      vertex   -4.933826e+001 7.173629e+001 6.816667e+000
      vertex   -4.933826e+001 7.173629e+001 1.015000e+001
      vertex   -4.917557e+001 7.186803e+001 1.015000e+001
    endloop
  endfacet
  facet normal -5.446390e-001 8.386706e-001 8.147886e-005
    outer loop
      vertex   -4.917126e+001 7.187116e+001 6.816667e+000
      vertex   -4.917557e+001 7.186803e+001 1.015000e+001
      vertex   -4.900000e+001 7.198205e+001 1.015000e+001
    endloop
  endfacet
  facet normal -4.539905e-001 8.910065e-001 1.334383e-004
    outer loop
      vertex   -4.899230e+001 7.198647e+001 6.816667e+000
      vertex   -4.900000e+001 7.198205e+001 1.015000e+001
      vertex   -4.881347e+001 7.207709e+001 1.015000e+001
    endloop
  endfacet
  facet normal -3.583679e-001 9.335804e-001 1.835098e-004
    outer loop
      vertex   -4.880211e+001 7.208211e+001 6.816667e+000
      vertex   -4.881347e+001 7.207709e+001 1.015000e+001
      vertex   -4.861803e+001 7.215211e+001 1.015000e+001
    endloop
  endfacet
  facet normal -2.588190e-001 9.659258e-001 2.316930e-004
    outer loop
      vertex   -4.860282e+001 7.215699e+001 6.816667e+000
      vertex   -4.861803e+001 7.215211e+001 1.015000e+001
      vertex   -4.841582e+001 7.220630e+001 1.015000e+001
    endloop
  endfacet
  facet normal -1.564345e-001 9.876883e-001 2.779880e-004
    outer loop
      vertex   -4.839671e+001 7.221026e+001 6.816667e+000
      vertex   -4.841582e+001 7.220630e+001 1.015000e+001
      vertex   -4.820906e+001 7.223904e+001 1.015000e+001
    endloop
  endfacet
  facet normal -5.233595e-002 9.986295e-001 3.223945e-004
    outer loop
      vertex   -4.818610e+001 7.224132e+001 6.816667e+000
      vertex   -4.820906e+001 7.223904e+001 1.015000e+001
      vertex   -4.800000e+001 7.225000e+001 1.015000e+001
    endloop
  endfacet
  facet normal -4.657456e-002 9.989148e-001 0.000000e+000
    outer loop
      vertex   -4.800000e+001 7.225000e+001 1.500000e-001
      vertex   -4.818610e+001 7.224132e+001 6.816667e+000
      vertex   -4.800000e+001 7.225000e+001 1.015000e+001
    endloop
  endfacet
  facet normal -4.657456e-002 9.989148e-001 0.000000e+000
    outer loop
      vertex   -4.800000e+001 7.225000e+001 1.500000e-001
      vertex   -4.818610e+001 7.224132e+001 3.483333e+000
      vertex   -4.818610e+001 7.224132e+001 6.816667e+000
    endloop
  endfacet
  facet normal -5.233595e-002 9.986295e-001 -3.223945e-004
    outer loop
      vertex   -4.800000e+001 7.225000e+001 1.500000e-001
      vertex   -4.820906e+001 7.223904e+001 1.500000e-001
      vertex   -4.818610e+001 7.224132e+001 3.483333e+000
    endloop
  endfacet
  facet normal -1.459074e-001 9.892982e-001 3.285307e-004
    outer loop
      vertex   -4.818610e+001 7.224132e+001 3.483333e+000
      vertex   -4.820906e+001 7.223904e+001 1.500000e-001
      vertex   -4.839671e+001 7.221026e+001 3.483333e+000
    endloop
  endfacet
  facet normal -2.502368e-001 9.681847e-001 0.000000e+000
    outer loop
      vertex   -4.839671e+001 7.221026e+001 6.816667e+000
      vertex   -4.839671e+001 7.221026e+001 3.483333e+000
      vertex   -4.860282e+001 7.215699e+001 6.816667e+000
    endloop
  endfacet
  facet normal -2.502368e-001 9.681846e-001 -2.831800e-004
    outer loop
      vertex   -4.841582e+001 7.220630e+001 1.015000e+001
      vertex   -4.839671e+001 7.221026e+001 6.816667e+000
      vertex   -4.860282e+001 7.215699e+001 6.816667e+000
    endloop
  endfacet
  facet normal -6.282853e-001 7.779830e-001 -8.360248e-005
    outer loop
      vertex   -4.933826e+001 7.173629e+001 6.816667e+000
      vertex   -4.917557e+001 7.186803e+001 1.015000e+001
      vertex   -4.917126e+001 7.187116e+001 6.816667e+000
    endloop
  endfacet
  facet normal -5.416585e-001 8.405987e-001 0.000000e+000
    outer loop
      vertex   -4.917126e+001 7.187116e+001 3.483333e+000
      vertex   -4.917126e+001 7.187116e+001 6.816667e+000
      vertex   -4.899230e+001 7.198647e+001 3.483333e+000
    endloop
  endfacet
  facet normal -4.539905e-001 8.910065e-001 -1.334383e-004
    outer loop
      vertex   -4.900000e+001 7.198205e+001 1.500000e-001
      vertex   -4.899230e+001 7.198647e+001 3.483333e+000
      vertex   -4.881347e+001 7.207709e+001 1.500000e-001
    endloop
  endfacet
  facet normal -5.416585e-001 8.405986e-001 1.357980e-004
    outer loop
      vertex   -4.900000e+001 7.198205e+001 1.500000e-001
      vertex   -4.917126e+001 7.187116e+001 3.483333e+000
      vertex   -4.899230e+001 7.198647e+001 3.483333e+000
    endloop
  endfacet
  facet normal -5.416585e-001 8.405986e-001 -1.357980e-004
    outer loop
      vertex   -4.917126e+001 7.187116e+001 6.816667e+000
      vertex   -4.900000e+001 7.198205e+001 1.015000e+001
      vertex   -4.899230e+001 7.198647e+001 6.816667e+000
    endloop
  endfacet
  facet normal -4.492397e-001 8.934113e-001 0.000000e+000
    outer loop
      vertex   -4.899230e+001 7.198647e+001 3.483333e+000
      vertex   -4.899230e+001 7.198647e+001 6.816667e+000
      vertex   -4.880211e+001 7.208211e+001 3.483333e+000
    endloop
  endfacet
  facet normal -3.583679e-001 9.335804e-001 -1.835098e-004
    outer loop
      vertex   -4.881347e+001 7.207709e+001 1.500000e-001
      vertex   -4.880211e+001 7.208211e+001 3.483333e+000
      vertex   -4.861803e+001 7.215211e+001 1.500000e-001
    endloop
  endfacet
  facet normal -4.492397e-001 8.934112e-001 1.868135e-004
    outer loop
      vertex   -4.881347e+001 7.207709e+001 1.500000e-001
      vertex   -4.899230e+001 7.198647e+001 3.483333e+000
      vertex   -4.880211e+001 7.208211e+001 3.483333e+000
    endloop
  endfacet
  facet normal -4.492397e-001 8.934112e-001 -1.868135e-004
    outer loop
      vertex   -4.899230e+001 7.198647e+001 6.816667e+000
      vertex   -4.881347e+001 7.207709e+001 1.015000e+001
      vertex   -4.880211e+001 7.208211e+001 6.816667e+000
    endloop
  endfacet
  facet normal -3.517309e-001 9.361012e-001 0.000000e+000
    outer loop
      vertex   -4.880211e+001 7.208211e+001 3.483333e+000
      vertex   -4.880211e+001 7.208211e+001 6.816667e+000
      vertex   -4.860282e+001 7.215699e+001 3.483333e+000
    endloop
  endfacet
  facet normal -2.588190e-001 9.659258e-001 -2.316930e-004
    outer loop
      vertex   -4.861803e+001 7.215211e+001 1.500000e-001
      vertex   -4.860282e+001 7.215699e+001 3.483333e+000
      vertex   -4.841582e+001 7.220630e+001 1.500000e-001
    endloop
  endfacet
  facet normal -3.517309e-001 9.361011e-001 2.359409e-004
    outer loop
      vertex   -4.861803e+001 7.215211e+001 1.500000e-001
      vertex   -4.880211e+001 7.208211e+001 3.483333e+000
      vertex   -4.860282e+001 7.215699e+001 3.483333e+000
    endloop
  endfacet
  facet normal -3.517309e-001 9.361011e-001 -2.359409e-004
    outer loop
      vertex   -4.880211e+001 7.208211e+001 6.816667e+000
      vertex   -4.861803e+001 7.215211e+001 1.015000e+001
      vertex   -4.860282e+001 7.215699e+001 6.816667e+000
    endloop
  endfacet
  facet normal -2.502368e-001 9.681847e-001 0.000000e+000
    outer loop
      vertex   -4.860282e+001 7.215699e+001 3.483333e+000
      vertex   -4.860282e+001 7.215699e+001 6.816667e+000
      vertex   -4.839671e+001 7.221026e+001 3.483333e+000
    endloop
  endfacet
  facet normal -1.564345e-001 9.876883e-001 -2.779880e-004
    outer loop
      vertex   -4.841582e+001 7.220630e+001 1.500000e-001
      vertex   -4.839671e+001 7.221026e+001 3.483333e+000
      vertex   -4.820906e+001 7.223904e+001 1.500000e-001
    endloop
  endfacet
  facet normal -2.502368e-001 9.681846e-001 2.831800e-004
    outer loop
      vertex   -4.841582e+001 7.220630e+001 1.500000e-001
      vertex   -4.860282e+001 7.215699e+001 3.483333e+000
      vertex   -4.839671e+001 7.221026e+001 3.483333e+000
    endloop
  endfacet
  facet normal -1.459074e-001 9.892982e-001 -3.285307e-004
    outer loop
      vertex   -4.839671e+001 7.221026e+001 6.816667e+000
      vertex   -4.820906e+001 7.223904e+001 1.015000e+001
      vertex   -4.818610e+001 7.224132e+001 6.816667e+000
    endloop
  endfacet
  facet normal -1.459074e-001 9.892982e-001 0.000000e+000
    outer loop
      vertex   -4.818610e+001 7.224132e+001 3.483333e+000
      vertex   -4.839671e+001 7.221026e+001 6.816667e+000
      vertex   -4.818610e+001 7.224132e+001 6.816667e+000
    endloop
  endfacet
  facet normal -1.459074e-001 9.892982e-001 0.000000e+000
    outer loop
      vertex   -4.818610e+001 7.224132e+001 3.483333e+000
      vertex   -4.839671e+001 7.221026e+001 3.483333e+000
      vertex   -4.839671e+001 7.221026e+001 6.816667e+000
    endloop
  endfacet
  facet normal -9.876883e-001 1.564345e-001 -2.779880e-004
    outer loop
      vertex   -4.995630e+001 7.066582e+001 1.500000e-001
      vertex   -4.998904e+001 7.045906e+001 1.500000e-001
      vertex   -4.996026e+001 7.064671e+001 3.483333e+000
    endloop
  endfacet
  facet normal -9.892982e-001 1.459074e-001 3.285307e-004
    outer loop
      vertex   -4.996026e+001 7.064671e+001 3.483333e+000
      vertex   -4.998904e+001 7.045906e+001 1.500000e-001
      vertex   -4.999132e+001 7.043610e+001 3.483333e+000
    endloop
  endfacet
  facet normal -9.989148e-001 4.657456e-002 0.000000e+000
    outer loop
      vertex   -4.999132e+001 7.043610e+001 6.816667e+000
      vertex   -4.999132e+001 7.043610e+001 3.483333e+000
      vertex   -5.000000e+001 7.025000e+001 1.015000e+001
    endloop
  endfacet
  facet normal -9.892982e-001 1.459074e-001 0.000000e+000
    outer loop
      vertex   -4.999132e+001 7.043610e+001 6.816667e+000
      vertex   -4.996026e+001 7.064671e+001 3.483333e+000
      vertex   -4.999132e+001 7.043610e+001 3.483333e+000
    endloop
  endfacet
  facet normal -9.986295e-001 5.233595e-002 -3.223945e-004
    outer loop
      vertex   -4.998904e+001 7.045906e+001 1.500000e-001
      vertex   -5.000000e+001 7.025000e+001 1.500000e-001
      vertex   -4.999132e+001 7.043610e+001 3.483333e+000
    endloop
  endfacet
  facet normal -9.989148e-001 4.657456e-002 0.000000e+000
    outer loop
      vertex   -4.999132e+001 7.043610e+001 3.483333e+000
      vertex   -5.000000e+001 7.025000e+001 1.500000e-001
      vertex   -5.000000e+001 7.025000e+001 1.015000e+001
    endloop
  endfacet
  facet normal -9.361012e-001 3.517309e-001 0.000000e+000
    outer loop
      vertex   -4.983211e+001 7.105211e+001 6.816667e+000
      vertex   -4.983211e+001 7.105211e+001 3.483333e+000
      vertex   -4.990699e+001 7.085282e+001 6.816667e+000
    endloop
  endfacet
  facet normal -8.934113e-001 4.492397e-001 0.000000e+000
    outer loop
      vertex   -4.973647e+001 7.124230e+001 6.816667e+000
      vertex   -4.973647e+001 7.124230e+001 3.483333e+000
      vertex   -4.983211e+001 7.105211e+001 6.816667e+000
    endloop
  endfacet
  facet normal -8.405987e-001 5.416585e-001 0.000000e+000
    outer loop
      vertex   -4.962116e+001 7.142126e+001 6.816667e+000
      vertex   -4.962116e+001 7.142126e+001 3.483333e+000
      vertex   -4.973647e+001 7.124230e+001 6.816667e+000
    endloop
  endfacet
  facet normal -7.779830e-001 6.282853e-001 0.000000e+000
    outer loop
      vertex   -4.948629e+001 7.158826e+001 6.816667e+000
      vertex   -4.948629e+001 7.158826e+001 3.483333e+000
      vertex   -4.962116e+001 7.142126e+001 6.816667e+000
    endloop
  endfacet
  facet normal -7.071068e-001 7.071068e-001 0.000000e+000
    outer loop
      vertex   -4.933826e+001 7.173629e+001 3.483333e+000
      vertex   -4.948629e+001 7.158826e+001 6.816667e+000
      vertex   -4.933826e+001 7.173629e+001 6.816667e+000
    endloop
  endfacet
  facet normal -6.282853e-001 7.779830e-001 0.000000e+000
    outer loop
      vertex   -4.917126e+001 7.187116e+001 6.816667e+000
      vertex   -4.917126e+001 7.187116e+001 3.483333e+000
      vertex   -4.933826e+001 7.173629e+001 6.816667e+000
    endloop
  endfacet
  facet normal -5.416585e-001 8.405987e-001 0.000000e+000
    outer loop
      vertex   -4.899230e+001 7.198647e+001 6.816667e+000
      vertex   -4.899230e+001 7.198647e+001 3.483333e+000
      vertex   -4.917126e+001 7.187116e+001 6.816667e+000
    endloop
  endfacet
  facet normal -4.492397e-001 8.934113e-001 0.000000e+000
    outer loop
      vertex   -4.880211e+001 7.208211e+001 6.816667e+000
      vertex   -4.880211e+001 7.208211e+001 3.483333e+000
      vertex   -4.899230e+001 7.198647e+001 6.816667e+000
    endloop
  endfacet
  facet normal -3.517309e-001 9.361012e-001 0.000000e+000
    outer loop
      vertex   -4.860282e+001 7.215699e+001 6.816667e+000
      vertex   -4.860282e+001 7.215699e+001 3.483333e+000
      vertex   -4.880211e+001 7.208211e+001 6.816667e+000
    endloop
  endfacet
  facet normal -0.000000e+000 1.000000e+000 0.000000e+000
    outer loop
      vertex   -4.800000e+001 7.225000e+001 1.015000e+001
      vertex   -2.600000e+001 7.225000e+001 1.015000e+001
      vertex   -4.800000e+001 7.225000e+001 1.500000e-001
    endloop
  endfacet
  facet normal -0.000000e+000 1.000000e+000 0.000000e+000
    outer loop
      vertex   -4.800000e+001 7.225000e+001 1.500000e-001
      vertex   -2.600000e+001 7.225000e+001 1.015000e+001
      vertex   -2.600000e+001 7.225000e+001 1.500000e-001
    endloop
  endfacet
  facet normal -0.000000e+000 -0.000000e+000 1.000000e+000
    outer loop
      vertex   -3.389973e+001 6.940000e+001 1.015000e+001
      vertex   -2.600000e+001 6.775000e+001 1.015000e+001
      vertex   -2.839973e+001 6.940000e+001 1.015000e+001
    endloop
  endfacet
  facet normal -0.000000e+000 0.000000e+000 1.000000e+000
    outer loop
      vertex   -3.389973e+001 6.940000e+001 1.015000e+001
      vertex   -4.800000e+001 6.775000e+001 1.015000e+001
      vertex   -2.600000e+001 6.775000e+001 1.015000e+001
    endloop
  endfacet
  facet normal 0.000000e+000 0.000000e+000 1.000000e+000
    outer loop
      vertex   -3.389973e+001 6.940000e+001 1.015000e+001
      vertex   -4.948629e+001 6.841174e+001 1.015000e+001
      vertex   -4.800000e+001 6.775000e+001 1.015000e+001
    endloop
  endfacet
  facet normal 0.000000e+000 0.000000e+000 1.000000e+000
    outer loop
      vertex   -3.389973e+001 6.940000e+001 1.015000e+001
      vertex   -4.961803e+001 6.857443e+001 1.015000e+001
      vertex   -4.948629e+001 6.841174e+001 1.015000e+001
    endloop
  endfacet
  facet normal 0.000000e+000 0.000000e+000 1.000000e+000
    outer loop
      vertex   -3.389973e+001 6.940000e+001 1.015000e+001
      vertex   -4.973205e+001 6.875000e+001 1.015000e+001
      vertex   -4.961803e+001 6.857443e+001 1.015000e+001
    endloop
  endfacet
  facet normal 0.000000e+000 0.000000e+000 1.000000e+000
    outer loop
      vertex   -3.389973e+001 6.940000e+001 1.015000e+001
      vertex   -4.982709e+001 6.893653e+001 1.015000e+001
      vertex   -4.973205e+001 6.875000e+001 1.015000e+001
    endloop
  endfacet
  facet normal 0.000000e+000 0.000000e+000 1.000000e+000
    outer loop
      vertex   -3.389973e+001 6.940000e+001 1.015000e+001
      vertex   -4.990211e+001 6.913197e+001 1.015000e+001
      vertex   -4.982709e+001 6.893653e+001 1.015000e+001
    endloop
  endfacet
  facet normal 0.000000e+000 0.000000e+000 1.000000e+000
    outer loop
      vertex   -3.389973e+001 6.940000e+001 1.015000e+001
      vertex   -4.995630e+001 6.933418e+001 1.015000e+001
      vertex   -4.990211e+001 6.913197e+001 1.015000e+001
    endloop
  endfacet
  facet normal 0.000000e+000 0.000000e+000 1.000000e+000
    outer loop
      vertex   -3.389973e+001 6.940000e+001 1.015000e+001
      vertex   -4.998904e+001 6.954094e+001 1.015000e+001
      vertex   -4.995630e+001 6.933418e+001 1.015000e+001
    endloop
  endfacet
  facet normal 0.000000e+000 0.000000e+000 1.000000e+000
    outer loop
      vertex   -3.389973e+001 6.940000e+001 1.015000e+001
      vertex   -5.000000e+001 6.975000e+001 1.015000e+001
      vertex   -4.998904e+001 6.954094e+001 1.015000e+001
    endloop
  endfacet
  facet normal 0.000000e+000 -0.000000e+000 1.000000e+000
    outer loop
      vertex   -3.389973e+001 6.940000e+001 1.015000e+001
      vertex   -3.389973e+001 7.060000e+001 1.015000e+001
      vertex   -5.000000e+001 6.975000e+001 1.015000e+001
    endloop
  endfacet
  facet normal 0.000000e+000 -0.000000e+000 1.000000e+000
    outer loop
      vertex   -5.000000e+001 6.975000e+001 1.015000e+001
      vertex   -3.389973e+001 7.060000e+001 1.015000e+001
      vertex   -5.000000e+001 7.025000e+001 1.015000e+001
    endloop
  endfacet
  facet normal 0.000000e+000 -0.000000e+000 1.000000e+000
    outer loop
      vertex   -5.000000e+001 7.025000e+001 1.015000e+001
      vertex   -3.389973e+001 7.060000e+001 1.015000e+001
      vertex   -4.998904e+001 7.045906e+001 1.015000e+001
    endloop
  endfacet
  facet normal 0.000000e+000 -0.000000e+000 1.000000e+000
    outer loop
      vertex   -4.998904e+001 7.045906e+001 1.015000e+001
      vertex   -3.389973e+001 7.060000e+001 1.015000e+001
      vertex   -4.995630e+001 7.066582e+001 1.015000e+001
    endloop
  endfacet
  facet normal -0.000000e+000 -0.000000e+000 1.000000e+000
    outer loop
      vertex   -4.995630e+001 7.066582e+001 1.015000e+001
      vertex   -3.389973e+001 7.060000e+001 1.015000e+001
      vertex   -4.990211e+001 7.086803e+001 1.015000e+001
    endloop
  endfacet
  facet normal -0.000000e+000 -0.000000e+000 1.000000e+000
    outer loop
      vertex   -4.990211e+001 7.086803e+001 1.015000e+001
      vertex   -3.389973e+001 7.060000e+001 1.015000e+001
      vertex   -4.982709e+001 7.106347e+001 1.015000e+001
    endloop
  endfacet
  facet normal -0.000000e+000 -0.000000e+000 1.000000e+000
    outer loop
      vertex   -4.982709e+001 7.106347e+001 1.015000e+001
      vertex   -3.389973e+001 7.060000e+001 1.015000e+001
      vertex   -4.973205e+001 7.125000e+001 1.015000e+001
    endloop
  endfacet
  facet normal -0.000000e+000 -0.000000e+000 1.000000e+000
    outer loop
      vertex   -4.973205e+001 7.125000e+001 1.015000e+001
      vertex   -3.389973e+001 7.060000e+001 1.015000e+001
      vertex   -4.961803e+001 7.142557e+001 1.015000e+001
    endloop
  endfacet
  facet normal -0.000000e+000 -0.000000e+000 1.000000e+000
    outer loop
      vertex   -4.961803e+001 7.142557e+001 1.015000e+001
      vertex   -3.389973e+001 7.060000e+001 1.015000e+001
      vertex   -4.948629e+001 7.158826e+001 1.015000e+001
    endloop
  endfacet
  facet normal -0.000000e+000 -0.000000e+000 1.000000e+000
    outer loop
      vertex   -4.948629e+001 7.158826e+001 1.015000e+001
      vertex   -3.389973e+001 7.060000e+001 1.015000e+001
      vertex   -4.800000e+001 7.225000e+001 1.015000e+001
    endloop
  endfacet
  facet normal 0.000000e+000 -0.000000e+000 1.000000e+000
    outer loop
      vertex   -4.933826e+001 7.173629e+001 1.015000e+001
      vertex   -4.800000e+001 7.225000e+001 1.015000e+001
      vertex   -4.917557e+001 7.186803e+001 1.015000e+001
    endloop
  endfacet
  facet normal -0.000000e+000 0.000000e+000 1.000000e+000
    outer loop
      vertex   -4.933826e+001 7.173629e+001 1.015000e+001
      vertex   -4.948629e+001 7.158826e+001 1.015000e+001
      vertex   -4.800000e+001 7.225000e+001 1.015000e+001
    endloop
  endfacet
  facet normal -0.000000e+000 0.000000e+000 1.000000e+000
    outer loop
      vertex   -4.800000e+001 7.225000e+001 1.015000e+001
      vertex   -3.389973e+001 7.060000e+001 1.015000e+001
      vertex   -2.600000e+001 7.225000e+001 1.015000e+001
    endloop
  endfacet
  facet normal -0.000000e+000 0.000000e+000 1.000000e+000
    outer loop
      vertex   -2.600000e+001 7.225000e+001 1.015000e+001
      vertex   -3.389973e+001 7.060000e+001 1.015000e+001
      vertex   -2.839973e+001 7.060000e+001 1.015000e+001
    endloop
  endfacet
  facet normal 0.000000e+000 -0.000000e+000 1.000000e+000
    outer loop
      vertex   -2.839973e+001 6.940000e+001 1.015000e+001
      vertex   -2.600000e+001 7.225000e+001 1.015000e+001
      vertex   -2.839973e+001 7.060000e+001 1.015000e+001
    endloop
  endfacet
  facet normal -0.000000e+000 0.000000e+000 1.000000e+000
    outer loop
      vertex   -2.839973e+001 6.940000e+001 1.015000e+001
      vertex   -2.600000e+001 6.775000e+001 1.015000e+001
      vertex   -2.600000e+001 7.225000e+001 1.015000e+001
    endloop
  endfacet
  facet normal -0.000000e+000 0.000000e+000 1.000000e+000
    outer loop
      vertex   -4.820906e+001 7.223904e+001 1.015000e+001
      vertex   -4.841582e+001 7.220630e+001 1.015000e+001
      vertex   -4.800000e+001 7.225000e+001 1.015000e+001
    endloop
  endfacet
  facet normal 0.000000e+000 0.000000e+000 1.000000e+000
    outer loop
      vertex   -4.800000e+001 7.225000e+001 1.015000e+001
      vertex   -4.841582e+001 7.220630e+001 1.015000e+001
      vertex   -4.861803e+001 7.215211e+001 1.015000e+001
    endloop
  endfacet
  facet normal 0.000000e+000 -0.000000e+000 1.000000e+000
    outer loop
      vertex   -4.881347e+001 7.207709e+001 1.015000e+001
      vertex   -4.800000e+001 7.225000e+001 1.015000e+001
      vertex   -4.861803e+001 7.215211e+001 1.015000e+001
    endloop
  endfacet
  facet normal -0.000000e+000 0.000000e+000 1.000000e+000
    outer loop
      vertex   -4.881347e+001 7.207709e+001 1.015000e+001
      vertex   -4.900000e+001 7.198205e+001 1.015000e+001
      vertex   -4.800000e+001 7.225000e+001 1.015000e+001
    endloop
  endfacet
  facet normal 0.000000e+000 0.000000e+000 1.000000e+000
    outer loop
      vertex   -4.800000e+001 7.225000e+001 1.015000e+001
      vertex   -4.900000e+001 7.198205e+001 1.015000e+001
      vertex   -4.917557e+001 7.186803e+001 1.015000e+001
    endloop
  endfacet
  facet normal 0.000000e+000 0.000000e+000 1.000000e+000
    outer loop
      vertex   -4.948629e+001 6.841174e+001 1.015000e+001
      vertex   -4.933826e+001 6.826371e+001 1.015000e+001
      vertex   -4.800000e+001 6.775000e+001 1.015000e+001
    endloop
  endfacet
  facet normal 0.000000e+000 0.000000e+000 1.000000e+000
    outer loop
      vertex   -4.800000e+001 6.775000e+001 1.015000e+001
      vertex   -4.933826e+001 6.826371e+001 1.015000e+001
      vertex   -4.917557e+001 6.813197e+001 1.015000e+001
    endloop
  endfacet
  facet normal -0.000000e+000 -0.000000e+000 1.000000e+000
    outer loop
      vertex   -4.900000e+001 6.801795e+001 1.015000e+001
      vertex   -4.800000e+001 6.775000e+001 1.015000e+001
      vertex   -4.917557e+001 6.813197e+001 1.015000e+001
    endloop
  endfacet
  facet normal 0.000000e+000 0.000000e+000 1.000000e+000
    outer loop
      vertex   -4.900000e+001 6.801795e+001 1.015000e+001
      vertex   -4.881347e+001 6.792291e+001 1.015000e+001
      vertex   -4.800000e+001 6.775000e+001 1.015000e+001
    endloop
  endfacet
  facet normal 0.000000e+000 0.000000e+000 1.000000e+000
    outer loop
      vertex   -4.800000e+001 6.775000e+001 1.015000e+001
      vertex   -4.881347e+001 6.792291e+001 1.015000e+001
      vertex   -4.861803e+001 6.784789e+001 1.015000e+001
    endloop
  endfacet
  facet normal -0.000000e+000 -0.000000e+000 1.000000e+000
    outer loop
      vertex   -4.841582e+001 6.779370e+001 1.015000e+001
      vertex   -4.800000e+001 6.775000e+001 1.015000e+001
      vertex   -4.861803e+001 6.784789e+001 1.015000e+001
    endloop
  endfacet
  facet normal 0.000000e+000 0.000000e+000 1.000000e+000
    outer loop
      vertex   -4.841582e+001 6.779370e+001 1.015000e+001
      vertex   -4.820906e+001 6.776096e+001 1.015000e+001
      vertex   -4.800000e+001 6.775000e+001 1.015000e+001
    endloop
  endfacet
  facet normal -9.986295e-001 -5.233595e-002 -3.223945e-004
    outer loop
      vertex   -4.998904e+001 6.954094e+001 1.500000e-001
      vertex   -4.999132e+001 6.956390e+001 3.483333e+000
      vertex   -5.000000e+001 6.975000e+001 1.500000e-001
    endloop
  endfacet
  facet normal -9.892982e-001 -1.459074e-001 3.285307e-004
    outer loop
      vertex   -4.998904e+001 6.954094e+001 1.500000e-001
      vertex   -4.996026e+001 6.935329e+001 3.483333e+000
      vertex   -4.999132e+001 6.956390e+001 3.483333e+000
    endloop
  endfacet
  facet normal -9.876883e-001 -1.564345e-001 -2.779880e-004
    outer loop
      vertex   -4.998904e+001 6.954094e+001 1.500000e-001
      vertex   -4.995630e+001 6.933418e+001 1.500000e-001
      vertex   -4.996026e+001 6.935329e+001 3.483333e+000
    endloop
  endfacet
  facet normal -9.681846e-001 -2.502368e-001 2.831800e-004
    outer loop
      vertex   -4.996026e+001 6.935329e+001 3.483333e+000
      vertex   -4.995630e+001 6.933418e+001 1.500000e-001
      vertex   -4.990699e+001 6.914718e+001 3.483333e+000
    endloop
  endfacet
  facet normal -9.361012e-001 -3.517309e-001 -0.000000e+000
    outer loop
      vertex   -4.990699e+001 6.914718e+001 6.816667e+000
      vertex   -4.990699e+001 6.914718e+001 3.483333e+000
      vertex   -4.983211e+001 6.894789e+001 6.816667e+000
    endloop
  endfacet
  facet normal -9.335804e-001 -3.583679e-001 1.835098e-004
    outer loop
      vertex   -4.990211e+001 6.913197e+001 1.015000e+001
      vertex   -4.983211e+001 6.894789e+001 6.816667e+000
      vertex   -4.982709e+001 6.893653e+001 1.015000e+001
    endloop
  endfacet
  facet normal -9.361011e-001 -3.517309e-001 -2.359409e-004
    outer loop
      vertex   -4.990211e+001 6.913197e+001 1.015000e+001
      vertex   -4.990699e+001 6.914718e+001 6.816667e+000
      vertex   -4.983211e+001 6.894789e+001 6.816667e+000
    endloop
  endfacet
  facet normal -9.659258e-001 -2.588190e-001 2.316930e-004
    outer loop
      vertex   -4.990211e+001 6.913197e+001 1.015000e+001
      vertex   -4.995630e+001 6.933418e+001 1.015000e+001
      vertex   -4.990699e+001 6.914718e+001 6.816667e+000
    endloop
  endfacet
  facet normal -9.681846e-001 -2.502368e-001 -2.831800e-004
    outer loop
      vertex   -4.990699e+001 6.914718e+001 6.816667e+000
      vertex   -4.995630e+001 6.933418e+001 1.015000e+001
      vertex   -4.996026e+001 6.935329e+001 6.816667e+000
    endloop
  endfacet
  facet normal -9.892982e-001 -1.459074e-001 0.000000e+000
    outer loop
      vertex   -4.996026e+001 6.935329e+001 3.483333e+000
      vertex   -4.996026e+001 6.935329e+001 6.816667e+000
      vertex   -4.999132e+001 6.956390e+001 3.483333e+000
    endloop
  endfacet
  facet normal -9.681847e-001 -2.502368e-001 0.000000e+000
    outer loop
      vertex   -4.996026e+001 6.935329e+001 3.483333e+000
      vertex   -4.990699e+001 6.914718e+001 6.816667e+000
      vertex   -4.996026e+001 6.935329e+001 6.816667e+000
    endloop
  endfacet
  facet normal -9.681847e-001 -2.502368e-001 0.000000e+000
    outer loop
      vertex   -4.996026e+001 6.935329e+001 3.483333e+000
      vertex   -4.990699e+001 6.914718e+001 3.483333e+000
      vertex   -4.990699e+001 6.914718e+001 6.816667e+000
    endloop
  endfacet
  facet normal -9.659258e-001 -2.588190e-001 -2.316930e-004
    outer loop
      vertex   -4.995630e+001 6.933418e+001 1.500000e-001
      vertex   -4.990211e+001 6.913197e+001 1.500000e-001
      vertex   -4.990699e+001 6.914718e+001 3.483333e+000
    endloop
  endfacet
  facet normal -9.361011e-001 -3.517309e-001 2.359409e-004
    outer loop
      vertex   -4.990699e+001 6.914718e+001 3.483333e+000
      vertex   -4.990211e+001 6.913197e+001 1.500000e-001
      vertex   -4.983211e+001 6.894789e+001 3.483333e+000
    endloop
  endfacet
  facet normal -8.934113e-001 -4.492397e-001 -0.000000e+000
    outer loop
      vertex   -4.983211e+001 6.894789e+001 6.816667e+000
      vertex   -4.983211e+001 6.894789e+001 3.483333e+000
      vertex   -4.973647e+001 6.875770e+001 6.816667e+000
    endloop
  endfacet
  facet normal -8.910065e-001 -4.539905e-001 1.334383e-004
    outer loop
      vertex   -4.982709e+001 6.893653e+001 1.015000e+001
      vertex   -4.973647e+001 6.875770e+001 6.816667e+000
      vertex   -4.973205e+001 6.875000e+001 1.015000e+001
    endloop
  endfacet
  facet normal -8.934112e-001 -4.492397e-001 -1.868135e-004
    outer loop
      vertex   -4.982709e+001 6.893653e+001 1.015000e+001
      vertex   -4.983211e+001 6.894789e+001 6.816667e+000
      vertex   -4.973647e+001 6.875770e+001 6.816667e+000
    endloop
  endfacet
  facet normal -9.335804e-001 -3.583679e-001 -1.835098e-004
    outer loop
      vertex   -4.990211e+001 6.913197e+001 1.500000e-001
      vertex   -4.982709e+001 6.893653e+001 1.500000e-001
      vertex   -4.983211e+001 6.894789e+001 3.483333e+000
    endloop
  endfacet
  facet normal -8.934112e-001 -4.492397e-001 1.868135e-004
    outer loop
      vertex   -4.983211e+001 6.894789e+001 3.483333e+000
      vertex   -4.982709e+001 6.893653e+001 1.500000e-001
      vertex   -4.973647e+001 6.875770e+001 3.483333e+000
    endloop
  endfacet
  facet normal -8.405987e-001 -5.416585e-001 -0.000000e+000
    outer loop
      vertex   -4.973647e+001 6.875770e+001 6.816667e+000
      vertex   -4.973647e+001 6.875770e+001 3.483333e+000
      vertex   -4.962116e+001 6.857874e+001 6.816667e+000
    endloop
  endfacet
  facet normal -8.386706e-001 -5.446390e-001 8.147886e-005
    outer loop
      vertex   -4.973205e+001 6.875000e+001 1.015000e+001
      vertex   -4.962116e+001 6.857874e+001 6.816667e+000
      vertex   -4.961803e+001 6.857443e+001 1.015000e+001
    endloop
  endfacet
  facet normal -8.405986e-001 -5.416585e-001 -1.357980e-004
    outer loop
      vertex   -4.973205e+001 6.875000e+001 1.015000e+001
      vertex   -4.973647e+001 6.875770e+001 6.816667e+000
      vertex   -4.962116e+001 6.857874e+001 6.816667e+000
    endloop
  endfacet
  facet normal -8.910065e-001 -4.539905e-001 -1.334383e-004
    outer loop
      vertex   -4.982709e+001 6.893653e+001 1.500000e-001
      vertex   -4.973205e+001 6.875000e+001 1.500000e-001
      vertex   -4.973647e+001 6.875770e+001 3.483333e+000
    endloop
  endfacet
  facet normal -8.405986e-001 -5.416585e-001 1.357980e-004
    outer loop
      vertex   -4.973647e+001 6.875770e+001 3.483333e+000
      vertex   -4.973205e+001 6.875000e+001 1.500000e-001
      vertex   -4.962116e+001 6.857874e+001 3.483333e+000
    endloop
  endfacet
  facet normal -7.779830e-001 -6.282853e-001 -0.000000e+000
    outer loop
      vertex   -4.962116e+001 6.857874e+001 6.816667e+000
      vertex   -4.962116e+001 6.857874e+001 3.483333e+000
      vertex   -4.948629e+001 6.841174e+001 6.816667e+000
    endloop
  endfacet
  facet normal -7.771460e-001 -6.293204e-001 -1.656586e-015
    outer loop
      vertex   -4.961803e+001 6.857443e+001 1.015000e+001
      vertex   -4.948629e+001 6.841174e+001 6.816667e+000
      vertex   -4.948629e+001 6.841174e+001 1.015000e+001
    endloop
  endfacet
  facet normal -7.779830e-001 -6.282853e-001 -8.360248e-005
    outer loop
      vertex   -4.961803e+001 6.857443e+001 1.015000e+001
      vertex   -4.962116e+001 6.857874e+001 6.816667e+000
      vertex   -4.948629e+001 6.841174e+001 6.816667e+000
    endloop
  endfacet
  facet normal -8.386706e-001 -5.446390e-001 -8.147886e-005
    outer loop
      vertex   -4.973205e+001 6.875000e+001 1.500000e-001
      vertex   -4.961803e+001 6.857443e+001 1.500000e-001
      vertex   -4.962116e+001 6.857874e+001 3.483333e+000
    endloop
  endfacet
  facet normal -7.779830e-001 -6.282853e-001 8.360248e-005
    outer loop
      vertex   -4.962116e+001 6.857874e+001 3.483333e+000
      vertex   -4.961803e+001 6.857443e+001 1.500000e-001
      vertex   -4.948629e+001 6.841174e+001 3.483333e+000
    endloop
  endfacet
  facet normal -7.071068e-001 -7.071068e-001 -0.000000e+000
    outer loop
      vertex   -4.948629e+001 6.841174e+001 6.816667e+000
      vertex   -4.948629e+001 6.841174e+001 3.483333e+000
      vertex   -4.933826e+001 6.826371e+001 6.816667e+000
    endloop
  endfacet
  facet normal -6.293204e-001 -7.771460e-001 -0.000000e+000
    outer loop
      vertex   -4.933826e+001 6.826371e+001 1.015000e+001
      vertex   -4.933826e+001 6.826371e+001 6.816667e+000
      vertex   -4.917557e+001 6.813197e+001 1.015000e+001
    endloop
  endfacet
  facet normal -7.071068e-001 -7.071068e-001 0.000000e+000
    outer loop
      vertex   -4.933826e+001 6.826371e+001 1.015000e+001
      vertex   -4.948629e+001 6.841174e+001 6.816667e+000
      vertex   -4.933826e+001 6.826371e+001 6.816667e+000
    endloop
  endfacet
  facet normal -7.071068e-001 -7.071068e-001 -1.507289e-015
    outer loop
      vertex   -4.933826e+001 6.826371e+001 1.015000e+001
      vertex   -4.948629e+001 6.841174e+001 1.015000e+001
      vertex   -4.948629e+001 6.841174e+001 6.816667e+000
    endloop
  endfacet
  facet normal -7.771460e-001 -6.293204e-001 1.656586e-015
    outer loop
      vertex   -4.961803e+001 6.857443e+001 1.500000e-001
      vertex   -4.948629e+001 6.841174e+001 1.500000e-001
      vertex   -4.948629e+001 6.841174e+001 3.483333e+000
    endloop
  endfacet
  facet normal -7.071068e-001 -7.071068e-001 1.507289e-015
    outer loop
      vertex   -4.948629e+001 6.841174e+001 3.483333e+000
      vertex   -4.948629e+001 6.841174e+001 1.500000e-001
      vertex   -4.933826e+001 6.826371e+001 3.483333e+000
    endloop
  endfacet
  facet normal -6.282853e-001 -7.779830e-001 -0.000000e+000
    outer loop
      vertex   -4.933826e+001 6.826371e+001 6.816667e+000
      vertex   -4.933826e+001 6.826371e+001 3.483333e+000
      vertex   -4.917126e+001 6.812884e+001 6.816667e+000
    endloop
  endfacet
  facet normal -5.446390e-001 -8.386706e-001 8.147886e-005
    outer loop
      vertex   -4.917557e+001 6.813197e+001 1.015000e+001
      vertex   -4.917126e+001 6.812884e+001 6.816667e+000
      vertex   -4.900000e+001 6.801795e+001 1.015000e+001
    endloop
  endfacet
  facet normal -6.282853e-001 -7.779830e-001 -8.360248e-005
    outer loop
      vertex   -4.917557e+001 6.813197e+001 1.015000e+001
      vertex   -4.933826e+001 6.826371e+001 6.816667e+000
      vertex   -4.917126e+001 6.812884e+001 6.816667e+000
    endloop
  endfacet
  facet normal -7.071068e-001 -7.071068e-001 0.000000e+000
    outer loop
      vertex   -4.948629e+001 6.841174e+001 1.500000e-001
      vertex   -4.933826e+001 6.826371e+001 1.500000e-001
      vertex   -4.933826e+001 6.826371e+001 3.483333e+000
    endloop
  endfacet
  facet normal -6.293204e-001 -7.771460e-001 -0.000000e+000
    outer loop
      vertex   -4.933826e+001 6.826371e+001 3.483333e+000
      vertex   -4.933826e+001 6.826371e+001 1.500000e-001
      vertex   -4.917557e+001 6.813197e+001 1.500000e-001
    endloop
  endfacet
  facet normal -5.446390e-001 -8.386706e-001 -8.147886e-005
    outer loop
      vertex   -4.917126e+001 6.812884e+001 3.483333e+000
      vertex   -4.917557e+001 6.813197e+001 1.500000e-001
      vertex   -4.900000e+001 6.801795e+001 1.500000e-001
    endloop
  endfacet
  facet normal -4.539905e-001 -8.910065e-001 -1.334383e-004
    outer loop
      vertex   -4.899230e+001 6.801353e+001 3.483333e+000
      vertex   -4.900000e+001 6.801795e+001 1.500000e-001
      vertex   -4.881347e+001 6.792291e+001 1.500000e-001
    endloop
  endfacet
  facet normal -3.583679e-001 -9.335804e-001 -1.835098e-004
    outer loop
      vertex   -4.880211e+001 6.791789e+001 3.483333e+000
      vertex   -4.881347e+001 6.792291e+001 1.500000e-001
      vertex   -4.861803e+001 6.784789e+001 1.500000e-001
    endloop
  endfacet
  facet normal -2.588190e-001 -9.659258e-001 -2.316930e-004
    outer loop
      vertex   -4.860282e+001 6.784301e+001 3.483333e+000
      vertex   -4.861803e+001 6.784789e+001 1.500000e-001
      vertex   -4.841582e+001 6.779370e+001 1.500000e-001
    endloop
  endfacet
  facet normal -1.564345e-001 -9.876883e-001 -2.779880e-004
    outer loop
      vertex   -4.839671e+001 6.778974e+001 3.483333e+000
      vertex   -4.841582e+001 6.779370e+001 1.500000e-001
      vertex   -4.820906e+001 6.776096e+001 1.500000e-001
    endloop
  endfacet
  facet normal -5.233595e-002 -9.986295e-001 -3.223945e-004
    outer loop
      vertex   -4.818610e+001 6.775868e+001 3.483333e+000
      vertex   -4.820906e+001 6.776096e+001 1.500000e-001
      vertex   -4.800000e+001 6.775000e+001 1.500000e-001
    endloop
  endfacet
  facet normal -4.657456e-002 -9.989148e-001 0.000000e+000
    outer loop
      vertex   -4.800000e+001 6.775000e+001 1.015000e+001
      vertex   -4.818610e+001 6.775868e+001 3.483333e+000
      vertex   -4.800000e+001 6.775000e+001 1.500000e-001
    endloop
  endfacet
  facet normal -4.657456e-002 -9.989148e-001 -0.000000e+000
    outer loop
      vertex   -4.800000e+001 6.775000e+001 1.015000e+001
      vertex   -4.818610e+001 6.775868e+001 6.816667e+000
      vertex   -4.818610e+001 6.775868e+001 3.483333e+000
    endloop
  endfacet
  facet normal -5.233595e-002 -9.986295e-001 3.223945e-004
    outer loop
      vertex   -4.800000e+001 6.775000e+001 1.015000e+001
      vertex   -4.820906e+001 6.776096e+001 1.015000e+001
      vertex   -4.818610e+001 6.775868e+001 6.816667e+000
    endloop
  endfacet
  facet normal -1.459074e-001 -9.892982e-001 -3.285307e-004
    outer loop
      vertex   -4.818610e+001 6.775868e+001 6.816667e+000
      vertex   -4.820906e+001 6.776096e+001 1.015000e+001
      vertex   -4.839671e+001 6.778974e+001 6.816667e+000
    endloop
  endfacet
  facet normal -2.502368e-001 -9.681847e-001 0.000000e+000
    outer loop
      vertex   -4.839671e+001 6.778974e+001 3.483333e+000
      vertex   -4.839671e+001 6.778974e+001 6.816667e+000
      vertex   -4.860282e+001 6.784301e+001 3.483333e+000
    endloop
  endfacet
  facet normal -2.502368e-001 -9.681846e-001 2.831800e-004
    outer loop
      vertex   -4.841582e+001 6.779370e+001 1.500000e-001
      vertex   -4.839671e+001 6.778974e+001 3.483333e+000
      vertex   -4.860282e+001 6.784301e+001 3.483333e+000
    endloop
  endfacet
  facet normal -6.282853e-001 -7.779830e-001 8.360248e-005
    outer loop
      vertex   -4.933826e+001 6.826371e+001 3.483333e+000
      vertex   -4.917557e+001 6.813197e+001 1.500000e-001
      vertex   -4.917126e+001 6.812884e+001 3.483333e+000
    endloop
  endfacet
  facet normal -5.416585e-001 -8.405987e-001 -0.000000e+000
    outer loop
      vertex   -4.917126e+001 6.812884e+001 6.816667e+000
      vertex   -4.917126e+001 6.812884e+001 3.483333e+000
      vertex   -4.899230e+001 6.801353e+001 6.816667e+000
    endloop
  endfacet
  facet normal -4.539905e-001 -8.910065e-001 1.334383e-004
    outer loop
      vertex   -4.900000e+001 6.801795e+001 1.015000e+001
      vertex   -4.899230e+001 6.801353e+001 6.816667e+000
      vertex   -4.881347e+001 6.792291e+001 1.015000e+001
    endloop
  endfacet
  facet normal -5.416585e-001 -8.405986e-001 -1.357980e-004
    outer loop
      vertex   -4.900000e+001 6.801795e+001 1.015000e+001
      vertex   -4.917126e+001 6.812884e+001 6.816667e+000
      vertex   -4.899230e+001 6.801353e+001 6.816667e+000
    endloop
  endfacet
  facet normal -5.416585e-001 -8.405986e-001 1.357980e-004
    outer loop
      vertex   -4.917126e+001 6.812884e+001 3.483333e+000
      vertex   -4.900000e+001 6.801795e+001 1.500000e-001
      vertex   -4.899230e+001 6.801353e+001 3.483333e+000
    endloop
  endfacet
  facet normal -4.492397e-001 -8.934113e-001 -0.000000e+000
    outer loop
      vertex   -4.899230e+001 6.801353e+001 6.816667e+000
      vertex   -4.899230e+001 6.801353e+001 3.483333e+000
      vertex   -4.880211e+001 6.791789e+001 6.816667e+000
    endloop
  endfacet
  facet normal -3.583679e-001 -9.335804e-001 1.835098e-004
    outer loop
      vertex   -4.881347e+001 6.792291e+001 1.015000e+001
      vertex   -4.880211e+001 6.791789e+001 6.816667e+000
      vertex   -4.861803e+001 6.784789e+001 1.015000e+001
    endloop
  endfacet
  facet normal -4.492397e-001 -8.934112e-001 -1.868135e-004
    outer loop
      vertex   -4.881347e+001 6.792291e+001 1.015000e+001
      vertex   -4.899230e+001 6.801353e+001 6.816667e+000
      vertex   -4.880211e+001 6.791789e+001 6.816667e+000
    endloop
  endfacet
  facet normal -4.492397e-001 -8.934112e-001 1.868135e-004
    outer loop
      vertex   -4.899230e+001 6.801353e+001 3.483333e+000
      vertex   -4.881347e+001 6.792291e+001 1.500000e-001
      vertex   -4.880211e+001 6.791789e+001 3.483333e+000
    endloop
  endfacet
  facet normal -3.517309e-001 -9.361012e-001 -0.000000e+000
    outer loop
      vertex   -4.880211e+001 6.791789e+001 6.816667e+000
      vertex   -4.880211e+001 6.791789e+001 3.483333e+000
      vertex   -4.860282e+001 6.784301e+001 6.816667e+000
    endloop
  endfacet
  facet normal -2.588190e-001 -9.659258e-001 2.316930e-004
    outer loop
      vertex   -4.861803e+001 6.784789e+001 1.015000e+001
      vertex   -4.860282e+001 6.784301e+001 6.816667e+000
      vertex   -4.841582e+001 6.779370e+001 1.015000e+001
    endloop
  endfacet
  facet normal -3.517309e-001 -9.361011e-001 -2.359409e-004
    outer loop
      vertex   -4.861803e+001 6.784789e+001 1.015000e+001
      vertex   -4.880211e+001 6.791789e+001 6.816667e+000
      vertex   -4.860282e+001 6.784301e+001 6.816667e+000
    endloop
  endfacet
  facet normal -3.517309e-001 -9.361011e-001 2.359409e-004
    outer loop
      vertex   -4.880211e+001 6.791789e+001 3.483333e+000
      vertex   -4.861803e+001 6.784789e+001 1.500000e-001
      vertex   -4.860282e+001 6.784301e+001 3.483333e+000
    endloop
  endfacet
  facet normal -2.502368e-001 -9.681847e-001 -0.000000e+000
    outer loop
      vertex   -4.860282e+001 6.784301e+001 6.816667e+000
      vertex   -4.860282e+001 6.784301e+001 3.483333e+000
      vertex   -4.839671e+001 6.778974e+001 6.816667e+000
    endloop
  endfacet
  facet normal -1.564345e-001 -9.876883e-001 2.779880e-004
    outer loop
      vertex   -4.841582e+001 6.779370e+001 1.015000e+001
      vertex   -4.839671e+001 6.778974e+001 6.816667e+000
      vertex   -4.820906e+001 6.776096e+001 1.015000e+001
    endloop
  endfacet
  facet normal -2.502368e-001 -9.681846e-001 -2.831800e-004
    outer loop
      vertex   -4.841582e+001 6.779370e+001 1.015000e+001
      vertex   -4.860282e+001 6.784301e+001 6.816667e+000
      vertex   -4.839671e+001 6.778974e+001 6.816667e+000
    endloop
  endfacet
  facet normal -1.459074e-001 -9.892982e-001 3.285307e-004
    outer loop
      vertex   -4.839671e+001 6.778974e+001 3.483333e+000
      vertex   -4.820906e+001 6.776096e+001 1.500000e-001
      vertex   -4.818610e+001 6.775868e+001 3.483333e+000
    endloop
  endfacet
  facet normal -1.459074e-001 -9.892982e-001 0.000000e+000
    outer loop
      vertex   -4.818610e+001 6.775868e+001 6.816667e+000
      vertex   -4.839671e+001 6.778974e+001 3.483333e+000
      vertex   -4.818610e+001 6.775868e+001 3.483333e+000
    endloop
  endfacet
  facet normal -1.459074e-001 -9.892982e-001 -0.000000e+000
    outer loop
      vertex   -4.818610e+001 6.775868e+001 6.816667e+000
      vertex   -4.839671e+001 6.778974e+001 6.816667e+000
      vertex   -4.839671e+001 6.778974e+001 3.483333e+000
    endloop
  endfacet
  facet normal -9.876883e-001 -1.564345e-001 2.779880e-004
    outer loop
      vertex   -4.995630e+001 6.933418e+001 1.015000e+001
      vertex   -4.998904e+001 6.954094e+001 1.015000e+001
      vertex   -4.996026e+001 6.935329e+001 6.816667e+000
    endloop
  endfacet
  facet normal -9.892982e-001 -1.459074e-001 -3.285307e-004
    outer loop
      vertex   -4.996026e+001 6.935329e+001 6.816667e+000
      vertex   -4.998904e+001 6.954094e+001 1.015000e+001
      vertex   -4.999132e+001 6.956390e+001 6.816667e+000
    endloop
  endfacet
  facet normal -9.989148e-001 -4.657456e-002 0.000000e+000
    outer loop
      vertex   -4.999132e+001 6.956390e+001 3.483333e+000
      vertex   -4.999132e+001 6.956390e+001 6.816667e+000
      vertex   -5.000000e+001 6.975000e+001 1.500000e-001
    endloop
  endfacet
  facet normal -9.892982e-001 -1.459074e-001 0.000000e+000
    outer loop
      vertex   -4.999132e+001 6.956390e+001 3.483333e+000
      vertex   -4.996026e+001 6.935329e+001 6.816667e+000
      vertex   -4.999132e+001 6.956390e+001 6.816667e+000
    endloop
  endfacet
  facet normal -9.986295e-001 -5.233595e-002 3.223945e-004
    outer loop
      vertex   -4.998904e+001 6.954094e+001 1.015000e+001
      vertex   -5.000000e+001 6.975000e+001 1.015000e+001
      vertex   -4.999132e+001 6.956390e+001 6.816667e+000
    endloop
  endfacet
  facet normal -9.989148e-001 -4.657456e-002 -0.000000e+000
    outer loop
      vertex   -4.999132e+001 6.956390e+001 6.816667e+000
      vertex   -5.000000e+001 6.975000e+001 1.015000e+001
      vertex   -5.000000e+001 6.975000e+001 1.500000e-001
    endloop
  endfacet
  facet normal -9.361012e-001 -3.517309e-001 0.000000e+000
    outer loop
      vertex   -4.983211e+001 6.894789e+001 3.483333e+000
      vertex   -4.983211e+001 6.894789e+001 6.816667e+000
      vertex   -4.990699e+001 6.914718e+001 3.483333e+000
    endloop
  endfacet
  facet normal -8.934113e-001 -4.492397e-001 0.000000e+000
    outer loop
      vertex   -4.973647e+001 6.875770e+001 3.483333e+000
      vertex   -4.973647e+001 6.875770e+001 6.816667e+000
      vertex   -4.983211e+001 6.894789e+001 3.483333e+000
    endloop
  endfacet
  facet normal -8.405987e-001 -5.416585e-001 0.000000e+000
    outer loop
      vertex   -4.962116e+001 6.857874e+001 3.483333e+000
      vertex   -4.962116e+001 6.857874e+001 6.816667e+000
      vertex   -4.973647e+001 6.875770e+001 3.483333e+000
    endloop
  endfacet
  facet normal -7.779830e-001 -6.282853e-001 0.000000e+000
    outer loop
      vertex   -4.948629e+001 6.841174e+001 3.483333e+000
      vertex   -4.948629e+001 6.841174e+001 6.816667e+000
      vertex   -4.962116e+001 6.857874e+001 3.483333e+000
    endloop
  endfacet
  facet normal -7.071068e-001 -7.071068e-001 0.000000e+000
    outer loop
      vertex   -4.933826e+001 6.826371e+001 6.816667e+000
      vertex   -4.948629e+001 6.841174e+001 3.483333e+000
      vertex   -4.933826e+001 6.826371e+001 3.483333e+000
    endloop
  endfacet
  facet normal -6.282853e-001 -7.779830e-001 0.000000e+000
    outer loop
      vertex   -4.917126e+001 6.812884e+001 3.483333e+000
      vertex   -4.917126e+001 6.812884e+001 6.816667e+000
      vertex   -4.933826e+001 6.826371e+001 3.483333e+000
    endloop
  endfacet
  facet normal -5.416585e-001 -8.405987e-001 0.000000e+000
    outer loop
      vertex   -4.899230e+001 6.801353e+001 3.483333e+000
      vertex   -4.899230e+001 6.801353e+001 6.816667e+000
      vertex   -4.917126e+001 6.812884e+001 3.483333e+000
    endloop
  endfacet
  facet normal -4.492397e-001 -8.934113e-001 0.000000e+000
    outer loop
      vertex   -4.880211e+001 6.791789e+001 3.483333e+000
      vertex   -4.880211e+001 6.791789e+001 6.816667e+000
      vertex   -4.899230e+001 6.801353e+001 3.483333e+000
    endloop
  endfacet
  facet normal -3.517309e-001 -9.361012e-001 0.000000e+000
    outer loop
      vertex   -4.860282e+001 6.784301e+001 3.483333e+000
      vertex   -4.860282e+001 6.784301e+001 6.816667e+000
      vertex   -4.880211e+001 6.791789e+001 3.483333e+000
    endloop
  endfacet
  facet normal 0.000000e+000 -1.000000e+000 0.000000e+000
    outer loop
      vertex   -4.800000e+001 6.775000e+001 1.500000e-001
      vertex   -2.600000e+001 6.775000e+001 1.500000e-001
      vertex   -4.800000e+001 6.775000e+001 1.015000e+001
    endloop
  endfacet
  facet normal 0.000000e+000 -1.000000e+000 0.000000e+000
    outer loop
      vertex   -4.800000e+001 6.775000e+001 1.015000e+001
      vertex   -2.600000e+001 6.775000e+001 1.500000e-001
      vertex   -2.600000e+001 6.775000e+001 1.015000e+001
    endloop
  endfacet
  facet normal -0.000000e+000 -0.000000e+000 -1.000000e+000
    outer loop
      vertex   -2.839973e+001 6.940000e+001 1.500000e-001
      vertex   -2.600000e+001 6.775000e+001 1.500000e-001
      vertex   -3.389973e+001 6.940000e+001 1.500000e-001
    endloop
  endfacet
  facet normal 0.000000e+000 0.000000e+000 -1.000000e+000
    outer loop
      vertex   -2.839973e+001 6.940000e+001 1.500000e-001
      vertex   -2.839973e+001 7.060000e+001 1.500000e-001
      vertex   -2.600000e+001 6.775000e+001 1.500000e-001
    endloop
  endfacet
  facet normal 0.000000e+000 0.000000e+000 -1.000000e+000
    outer loop
      vertex   -2.600000e+001 6.775000e+001 1.500000e-001
      vertex   -2.839973e+001 7.060000e+001 1.500000e-001
      vertex   -2.600000e+001 7.225000e+001 1.500000e-001
    endloop
  endfacet
  facet normal -0.000000e+000 0.000000e+000 -1.000000e+000
    outer loop
      vertex   -2.600000e+001 7.225000e+001 1.500000e-001
      vertex   -2.839973e+001 7.060000e+001 1.500000e-001
      vertex   -3.389973e+001 7.060000e+001 1.500000e-001
    endloop
  endfacet
  facet normal -3.886652e-018 -3.321384e-017 -1.000000e+000
    outer loop
      vertex   -4.800000e+001 7.225000e+001 1.500000e-001
      vertex   -3.389973e+001 7.060000e+001 1.500000e-001
      vertex   -4.948629e+001 7.158826e+001 1.500000e-001
    endloop
  endfacet
  facet normal 2.672954e-016 -6.422987e-016 -1.000000e+000
    outer loop
      vertex   -4.933826e+001 7.173629e+001 1.500000e-001
      vertex   -4.800000e+001 7.225000e+001 1.500000e-001
      vertex   -4.948629e+001 7.158826e+001 1.500000e-001
    endloop
  endfacet
  facet normal 1.931899e-016 -4.492472e-016 -1.000000e+000
    outer loop
      vertex   -4.933826e+001 7.173629e+001 1.500000e-001
      vertex   -4.917557e+001 7.186803e+001 1.500000e-001
      vertex   -4.800000e+001 7.225000e+001 1.500000e-001
    endloop
  endfacet
  facet normal 2.528023e-016 -6.327155e-016 -1.000000e+000
    outer loop
      vertex   -4.800000e+001 7.225000e+001 1.500000e-001
      vertex   -4.917557e+001 7.186803e+001 1.500000e-001
      vertex   -4.900000e+001 7.198205e+001 1.500000e-001
    endloop
  endfacet
  facet normal 3.406706e-016 -9.606444e-016 -1.000000e+000
    outer loop
      vertex   -4.881347e+001 7.207709e+001 1.500000e-001
      vertex   -4.800000e+001 7.225000e+001 1.500000e-001
      vertex   -4.900000e+001 7.198205e+001 1.500000e-001
    endloop
  endfacet
  facet normal 4.820340e-016 -1.625707e-015 -1.000000e+000
    outer loop
      vertex   -4.881347e+001 7.207709e+001 1.500000e-001
      vertex   -4.861803e+001 7.215211e+001 1.500000e-001
      vertex   -4.800000e+001 7.225000e+001 1.500000e-001
    endloop
  endfacet
  facet normal 7.475692e-016 -3.302230e-015 -1.000000e+000
    outer loop
      vertex   -4.800000e+001 7.225000e+001 1.500000e-001
      vertex   -4.861803e+001 7.215211e+001 1.500000e-001
      vertex   -4.841582e+001 7.220630e+001 1.500000e-001
    endloop
  endfacet
  facet normal 1.455331e-015 -1.003613e-014 -1.000000e+000
    outer loop
      vertex   -4.820906e+001 7.223904e+001 1.500000e-001
      vertex   -4.800000e+001 7.225000e+001 1.500000e-001
      vertex   -4.841582e+001 7.220630e+001 1.500000e-001
    endloop
  endfacet
  facet normal 3.447840e-018 0.000000e+000 -1.000000e+000
    outer loop
      vertex   -3.389973e+001 6.940000e+001 1.500000e-001
      vertex   -5.000000e+001 7.025000e+001 1.500000e-001
      vertex   -3.389973e+001 7.060000e+001 1.500000e-001
    endloop
  endfacet
  facet normal -8.274816e-018 -2.220446e-016 -1.000000e+000
    outer loop
      vertex   -3.389973e+001 6.940000e+001 1.500000e-001
      vertex   -5.000000e+001 6.975000e+001 1.500000e-001
      vertex   -5.000000e+001 7.025000e+001 1.500000e-001
    endloop
  endfacet
  facet normal 2.255331e-017 1.196073e-015 -1.000000e+000
    outer loop
      vertex   -3.389973e+001 6.940000e+001 1.500000e-001
      vertex   -4.998904e+001 6.954094e+001 1.500000e-001
      vertex   -5.000000e+001 6.975000e+001 1.500000e-001
    endloop
  endfacet
  facet normal 1.091488e-017 -1.325076e-016 -1.000000e+000
    outer loop
      vertex   -3.389973e+001 6.940000e+001 1.500000e-001
      vertex   -4.995630e+001 6.933418e+001 1.500000e-001
      vertex   -4.998904e+001 6.954094e+001 1.500000e-001
    endloop
  endfacet
  facet normal 1.092237e-017 -1.343341e-016 -1.000000e+000
    outer loop
      vertex   -3.389973e+001 6.940000e+001 1.500000e-001
      vertex   -4.990211e+001 6.913197e+001 1.500000e-001
      vertex   -4.995630e+001 6.933418e+001 1.500000e-001
    endloop
  endfacet
  facet normal 1.098045e-017 -1.378014e-016 -1.000000e+000
    outer loop
      vertex   -3.389973e+001 6.940000e+001 1.500000e-001
      vertex   -4.982709e+001 6.893653e+001 1.500000e-001
      vertex   -4.990211e+001 6.913197e+001 1.500000e-001
    endloop
  endfacet
  facet normal 1.113546e-017 -1.431283e-016 -1.000000e+000
    outer loop
      vertex   -3.389973e+001 6.940000e+001 1.500000e-001
      vertex   -4.973205e+001 6.875000e+001 1.500000e-001
      vertex   -4.982709e+001 6.893653e+001 1.500000e-001
    endloop
  endfacet
  facet normal 1.144450e-017 -1.506558e-016 -1.000000e+000
    outer loop
      vertex   -3.389973e+001 6.940000e+001 1.500000e-001
      vertex   -4.961803e+001 6.857443e+001 1.500000e-001
      vertex   -4.973205e+001 6.875000e+001 1.500000e-001
    endloop
  endfacet
  facet normal 1.198256e-017 -1.609000e-016 -1.000000e+000
    outer loop
      vertex   -3.389973e+001 6.940000e+001 1.500000e-001
      vertex   -4.948629e+001 6.841174e+001 1.500000e-001
      vertex   -4.961803e+001 6.857443e+001 1.500000e-001
    endloop
  endfacet
  facet normal 3.886652e-018 -3.321384e-017 -1.000000e+000
    outer loop
      vertex   -3.389973e+001 6.940000e+001 1.500000e-001
      vertex   -4.800000e+001 6.775000e+001 1.500000e-001
      vertex   -4.948629e+001 6.841174e+001 1.500000e-001
    endloop
  endfacet
  facet normal -0.000000e+000 -0.000000e+000 -1.000000e+000
    outer loop
      vertex   -3.389973e+001 6.940000e+001 1.500000e-001
      vertex   -2.600000e+001 6.775000e+001 1.500000e-001
      vertex   -4.800000e+001 6.775000e+001 1.500000e-001
    endloop
  endfacet
  facet normal -2.255331e-017 1.196073e-015 -1.000000e+000
    outer loop
      vertex   -5.000000e+001 7.025000e+001 1.500000e-001
      vertex   -4.998904e+001 7.045906e+001 1.500000e-001
      vertex   -3.389973e+001 7.060000e+001 1.500000e-001
    endloop
  endfacet
  facet normal -1.091488e-017 -1.325076e-016 -1.000000e+000
    outer loop
      vertex   -3.389973e+001 7.060000e+001 1.500000e-001
      vertex   -4.998904e+001 7.045906e+001 1.500000e-001
      vertex   -4.995630e+001 7.066582e+001 1.500000e-001
    endloop
  endfacet
  facet normal -1.092237e-017 -1.343341e-016 -1.000000e+000
    outer loop
      vertex   -4.990211e+001 7.086803e+001 1.500000e-001
      vertex   -3.389973e+001 7.060000e+001 1.500000e-001
      vertex   -4.995630e+001 7.066582e+001 1.500000e-001
    endloop
  endfacet
  facet normal -1.098045e-017 -1.378014e-016 -1.000000e+000
    outer loop
      vertex   -4.990211e+001 7.086803e+001 1.500000e-001
      vertex   -4.982709e+001 7.106347e+001 1.500000e-001
      vertex   -3.389973e+001 7.060000e+001 1.500000e-001
    endloop
  endfacet
  facet normal -1.113546e-017 -1.431283e-016 -1.000000e+000
    outer loop
      vertex   -3.389973e+001 7.060000e+001 1.500000e-001
      vertex   -4.982709e+001 7.106347e+001 1.500000e-001
      vertex   -4.973205e+001 7.125000e+001 1.500000e-001
    endloop
  endfacet
  facet normal -1.144450e-017 -1.506558e-016 -1.000000e+000
    outer loop
      vertex   -4.961803e+001 7.142557e+001 1.500000e-001
      vertex   -3.389973e+001 7.060000e+001 1.500000e-001
      vertex   -4.973205e+001 7.125000e+001 1.500000e-001
    endloop
  endfacet
  facet normal -1.198256e-017 -1.609000e-016 -1.000000e+000
    outer loop
      vertex   -4.961803e+001 7.142557e+001 1.500000e-001
      vertex   -4.948629e+001 7.158826e+001 1.500000e-001
      vertex   -3.389973e+001 7.060000e+001 1.500000e-001
    endloop
  endfacet
  facet normal 0.000000e+000 -0.000000e+000 -1.000000e+000
    outer loop
      vertex   -4.800000e+001 7.225000e+001 1.500000e-001
      vertex   -2.600000e+001 7.225000e+001 1.500000e-001
      vertex   -3.389973e+001 7.060000e+001 1.500000e-001
    endloop
  endfacet
  facet normal -1.455331e-015 -1.003613e-014 -1.000000e+000
    outer loop
      vertex   -4.820906e+001 6.776096e+001 1.500000e-001
      vertex   -4.841582e+001 6.779370e+001 1.500000e-001
      vertex   -4.800000e+001 6.775000e+001 1.500000e-001
    endloop
  endfacet
  facet normal -7.475692e-016 -3.302230e-015 -1.000000e+000
    outer loop
      vertex   -4.800000e+001 6.775000e+001 1.500000e-001
      vertex   -4.841582e+001 6.779370e+001 1.500000e-001
      vertex   -4.861803e+001 6.784789e+001 1.500000e-001
    endloop
  endfacet
  facet normal -4.820340e-016 -1.625707e-015 -1.000000e+000
    outer loop
      vertex   -4.881347e+001 6.792291e+001 1.500000e-001
      vertex   -4.800000e+001 6.775000e+001 1.500000e-001
      vertex   -4.861803e+001 6.784789e+001 1.500000e-001
    endloop
  endfacet
  facet normal -3.406706e-016 -9.606444e-016 -1.000000e+000
    outer loop
      vertex   -4.881347e+001 6.792291e+001 1.500000e-001
      vertex   -4.900000e+001 6.801795e+001 1.500000e-001
      vertex   -4.800000e+001 6.775000e+001 1.500000e-001
    endloop
  endfacet
  facet normal -2.528023e-016 -6.327155e-016 -1.000000e+000
    outer loop
      vertex   -4.800000e+001 6.775000e+001 1.500000e-001
      vertex   -4.900000e+001 6.801795e+001 1.500000e-001
      vertex   -4.917557e+001 6.813197e+001 1.500000e-001
    endloop
  endfacet
  facet normal -1.931899e-016 -4.492472e-016 -1.000000e+000
    outer loop
      vertex   -4.933826e+001 6.826371e+001 1.500000e-001
      vertex   -4.800000e+001 6.775000e+001 1.500000e-001
      vertex   -4.917557e+001 6.813197e+001 1.500000e-001
    endloop
  endfacet
  facet normal -2.672954e-016 -6.422987e-016 -1.000000e+000
    outer loop
      vertex   -4.933826e+001 6.826371e+001 1.500000e-001
      vertex   -4.948629e+001 6.841174e+001 1.500000e-001
      vertex   -4.800000e+001 6.775000e+001 1.500000e-001
    endloop
  endfacet
  facet normal -1.000000e+000 0.000000e+000 0.000000e+000
    outer loop
      vertex   -5.000000e+001 7.025000e+001 1.500000e-001
      vertex   -5.000000e+001 6.975000e+001 1.500000e-001
      vertex   -5.000000e+001 7.025000e+001 1.015000e+001
    endloop
  endfacet
  facet normal -1.000000e+000 -0.000000e+000 0.000000e+000
    outer loop
      vertex   -5.000000e+001 7.025000e+001 1.015000e+001
      vertex   -5.000000e+001 6.975000e+001 1.500000e-001
      vertex   -5.000000e+001 6.975000e+001 1.015000e+001
    endloop
  endfacet
  facet normal 1.000000e+000 0.000000e+000 -0.000000e+000
    outer loop
      vertex   -2.600000e+001 6.775000e+001 1.500000e-001
      vertex   -2.600000e+001 7.225000e+001 1.500000e-001
      vertex   -2.600000e+001 6.775000e+001 1.015000e+001
    endloop
  endfacet
  facet normal 1.000000e+000 -0.000000e+000 0.000000e+000
    outer loop
      vertex   -2.600000e+001 6.775000e+001 1.015000e+001
      vertex   -2.600000e+001 7.225000e+001 1.500000e-001
      vertex   -2.600000e+001 7.225000e+001 1.015000e+001
    endloop
  endfacet
endsolid
